<svg version="1.1" xmlns="http://www.w3.org/2000/svg" xmlns:xlink="http://www.w3.org/1999/xlink" width="1299.96533203125" height="978"><defs/><g><g transform="translate(-30,-22) scale(1,1)"><rect fill="#C0C0C0" stroke="none" x="727" y="367" width="151" height="111" opacity="0.2"/></g><g transform="translate(-30,-22) scale(1,1)"><rect fill="#ffffff" stroke="none" x="720" y="360" width="151" height="111"/></g><g transform="translate(-30,-22) scale(1,1)"><path fill="none" stroke="#000000" d="M 720 360 L 871 360 L 871 471 L 720 471 L 720 360 Z Z" stroke-miterlimit="10"/></g><g transform="translate(-30,-22) scale(1,1)"><path fill="none" stroke="#000000" d="M 720 398 L 871 398" stroke-miterlimit="10"/></g><g transform="translate(-30,-22) scale(1,1)"><path fill="none" stroke="#000000" d="M 720 408 L 871 408" stroke-miterlimit="10"/></g><g transform="translate(-30,-22) scale(1,1)"><g><path fill="none" stroke="none"/><text fill="#000000" stroke="none" font-family="Arial" font-size="13px" font-style="normal" font-weight="normal" text-decoration="none" x="763.339599609375" y="377.5">«interface»</text></g></g><g transform="translate(-30,-22) scale(1,1)"><g><path fill="none" stroke="none"/><text fill="#000000" stroke="none" font-family="Arial" font-size="13px" font-style="normal" font-weight="bold" text-decoration="none" x="766.60546875" y="392.5">IEscritorio</text></g></g><g transform="translate(-30,-22) scale(1,1)"><rect fill="#C0C0C0" stroke="none" x="671" y="551" width="144" height="96" opacity="0.2"/></g><g transform="translate(-30,-22) scale(1,1)"><rect fill="#ffffff" stroke="none" x="664" y="544" width="144" height="96"/></g><g transform="translate(-30,-22) scale(1,1)"><path fill="none" stroke="#000000" d="M 664 544 L 808 544 L 808 640 L 664 640 L 664 544 Z Z" stroke-miterlimit="10"/></g><g transform="translate(-30,-22) scale(1,1)"><path fill="none" stroke="#000000" d="M 664 569 L 808 569" stroke-miterlimit="10"/></g><g transform="translate(-30,-22) scale(1,1)"><path fill="none" stroke="#000000" d="M 664 622 L 808 622" stroke-miterlimit="10"/></g><g transform="translate(-30,-22) scale(1,1)"><g><path fill="none" stroke="none"/><text fill="#000000" stroke="none" font-family="Arial" font-size="13px" font-style="normal" font-weight="bold" text-decoration="none" x="692.65185546875" y="563.5">EscritorioDELL</text></g></g><g transform="translate(-30,-22) scale(1,1)"><g><path fill="none" stroke="none"/><text fill="#000000" stroke="none" font-family="Arial" font-size="13px" font-style="normal" font-weight="normal" text-decoration="none" x="669" y="586.5">+procesardor: String</text></g></g><g transform="translate(-30,-22) scale(1,1)"><g><path fill="none" stroke="none"/><text fill="#000000" stroke="none" font-family="Arial" font-size="13px" font-style="normal" font-weight="normal" text-decoration="none" x="669" y="601.5">+ram: int</text></g></g><g transform="translate(-30,-22) scale(1,1)"><g><path fill="none" stroke="none"/><text fill="#000000" stroke="none" font-family="Arial" font-size="13px" font-style="normal" font-weight="normal" text-decoration="none" x="669" y="616.5">+discoDuro: int</text></g></g><g transform="translate(-30,-22) scale(1,1)"><rect fill="#C0C0C0" stroke="none" x="1159" y="551" width="144" height="96" opacity="0.2"/></g><g transform="translate(-30,-22) scale(1,1)"><rect fill="#ffffff" stroke="none" x="1152" y="544" width="144" height="96"/></g><g transform="translate(-30,-22) scale(1,1)"><path fill="none" stroke="#000000" d="M 1152 544 L 1296 544 L 1296 640 L 1152 640 L 1152 544 Z Z" stroke-miterlimit="10"/></g><g transform="translate(-30,-22) scale(1,1)"><path fill="none" stroke="#000000" d="M 1152 569 L 1296 569" stroke-miterlimit="10"/></g><g transform="translate(-30,-22) scale(1,1)"><path fill="none" stroke="#000000" d="M 1152 622 L 1296 622" stroke-miterlimit="10"/></g><g transform="translate(-30,-22) scale(1,1)"><g><path fill="none" stroke="none"/><text fill="#000000" stroke="none" font-family="Arial" font-size="13px" font-style="normal" font-weight="bold" text-decoration="none" x="1187.510498046875" y="563.5">PortatilDELL</text></g></g><g transform="translate(-30,-22) scale(1,1)"><g><path fill="none" stroke="none"/><text fill="#000000" stroke="none" font-family="Arial" font-size="13px" font-style="normal" font-weight="normal" text-decoration="none" x="1157" y="586.5">+procesardor: String</text></g></g><g transform="translate(-30,-22) scale(1,1)"><g><path fill="none" stroke="none"/><text fill="#000000" stroke="none" font-family="Arial" font-size="13px" font-style="normal" font-weight="normal" text-decoration="none" x="1157" y="601.5">+ram: int</text></g></g><g transform="translate(-30,-22) scale(1,1)"><g><path fill="none" stroke="none"/><text fill="#000000" stroke="none" font-family="Arial" font-size="13px" font-style="normal" font-weight="normal" text-decoration="none" x="1157" y="616.5">+discoDuro: int</text></g></g><g transform="translate(-30,-22) scale(1,1)"><rect fill="#C0C0C0" stroke="none" x="295" y="367" width="229.72705078125" height="104" opacity="0.2"/></g><g transform="translate(-30,-22) scale(1,1)"><rect fill="#ffffff" stroke="none" x="288" y="360" width="229.72705078125" height="104"/></g><g transform="translate(-30,-22) scale(1,1)"><path fill="none" stroke="#000000" d="M 288 360 L 517.72705078125 360 L 517.72705078125 464 L 288 464 L 288 360 Z Z" stroke-miterlimit="10"/></g><g transform="translate(-30,-22) scale(1,1)"><path fill="none" stroke="#000000" d="M 288 398 L 517.72705078125 398" stroke-miterlimit="10"/></g><g transform="translate(-30,-22) scale(1,1)"><path fill="none" stroke="#000000" d="M 288 408 L 517.72705078125 408" stroke-miterlimit="10"/></g><g transform="translate(-30,-22) scale(1,1)"><g><path fill="none" stroke="none"/><text fill="#000000" stroke="none" font-family="Arial" font-size="13px" font-style="normal" font-weight="normal" text-decoration="none" x="372.51220703125" y="377.5">«abstract»</text></g></g><g transform="translate(-30,-22) scale(1,1)"><g><path fill="none" stroke="none"/><text fill="#000000" stroke="none" font-family="Arial" font-size="13px" font-style="normal" font-weight="bold" text-decoration="none" x="345.423583984375" y="392.5">ComputadorFactory</text></g></g><g transform="translate(-30,-22) scale(1,1)"><g><path fill="none" stroke="none"/><text fill="#000000" stroke="none" font-family="Arial" font-size="13px" font-style="normal" font-weight="normal" text-decoration="none" x="293" y="425.5">+crearEscrotorio(): IEscritorio</text></g></g><g transform="translate(-30,-22) scale(1,1)"><g><path fill="none" stroke="none"/><text fill="#000000" stroke="none" font-family="Arial" font-size="13px" font-style="normal" font-weight="normal" text-decoration="none" x="293" y="440.5">+crearPortatil(): IPortatil</text></g></g><g transform="translate(-30,-22) scale(1,1)"><path fill="none" stroke="#0000ff" d="M 752 543 L 776 472" stroke-miterlimit="10"/></g><g transform="translate(-30,-22) scale(1,1)"><path fill="#FFFFFF" stroke="none" d="M 777.4669519128162 493.95103760840215 L 776 472 L 761.5155640982448 488.559019192209"/></g><g transform="translate(-30,-22) scale(1,1)"><path fill="none" stroke="#0000ff" d="M 777.4669519128162 493.95103760840215 L 776 472 L 761.5155640982448 488.559019192209 L 777.4669519128162 493.95103760840215" stroke-miterlimit="10"/></g><g transform="translate(-30,-22) scale(1,1)"><rect fill="#C0C0C0" stroke="none" x="119" y="543" width="229.72705078125" height="87" opacity="0.2"/></g><g transform="translate(-30,-22) scale(1,1)"><rect fill="#ffffff" stroke="none" x="112" y="536" width="229.72705078125" height="87"/></g><g transform="translate(-30,-22) scale(1,1)"><path fill="none" stroke="#000000" d="M 112 536 L 341.72705078125 536 L 341.72705078125 623 L 112 623 L 112 536 Z Z" stroke-miterlimit="10"/></g><g transform="translate(-30,-22) scale(1,1)"><path fill="none" stroke="#000000" d="M 112 561 L 341.72705078125 561" stroke-miterlimit="10"/></g><g transform="translate(-30,-22) scale(1,1)"><path fill="none" stroke="#000000" d="M 112 571 L 341.72705078125 571" stroke-miterlimit="10"/></g><g transform="translate(-30,-22) scale(1,1)"><g><path fill="none" stroke="none"/><text fill="#000000" stroke="none" font-family="Arial" font-size="13px" font-style="normal" font-weight="bold" text-decoration="none" x="188.93310546875" y="555.5">DELLFactory</text></g></g><g transform="translate(-30,-22) scale(1,1)"><g><path fill="none" stroke="none"/><text fill="#000000" stroke="none" font-family="Arial" font-size="13px" font-style="normal" font-weight="normal" text-decoration="none" x="117" y="588.5">+crearEscrotorio(): IEscritorio</text></g></g><g transform="translate(-30,-22) scale(1,1)"><g><path fill="none" stroke="none"/><text fill="#000000" stroke="none" font-family="Arial" font-size="13px" font-style="normal" font-weight="normal" text-decoration="none" x="117" y="603.5">+crearPortatil(): IPortatil</text></g></g><g transform="translate(-30,-22) scale(1,1)"><rect fill="#C0C0C0" stroke="none" x="391" y="543" width="229.72705078125" height="88" opacity="0.2"/></g><g transform="translate(-30,-22) scale(1,1)"><rect fill="#ffffff" stroke="none" x="384" y="536" width="229.72705078125" height="88"/></g><g transform="translate(-30,-22) scale(1,1)"><path fill="none" stroke="#000000" d="M 384 536 L 613.72705078125 536 L 613.72705078125 624 L 384 624 L 384 536 Z Z" stroke-miterlimit="10"/></g><g transform="translate(-30,-22) scale(1,1)"><path fill="none" stroke="#000000" d="M 384 561 L 613.72705078125 561" stroke-miterlimit="10"/></g><g transform="translate(-30,-22) scale(1,1)"><path fill="none" stroke="#000000" d="M 384 571 L 613.72705078125 571" stroke-miterlimit="10"/></g><g transform="translate(-30,-22) scale(1,1)"><g><path fill="none" stroke="none"/><text fill="#000000" stroke="none" font-family="Arial" font-size="13px" font-style="normal" font-weight="bold" text-decoration="none" x="468.1630859375" y="555.5">HPFactory</text></g></g><g transform="translate(-30,-22) scale(1,1)"><g><path fill="none" stroke="none"/><text fill="#000000" stroke="none" font-family="Arial" font-size="13px" font-style="normal" font-weight="normal" text-decoration="none" x="389" y="588.5">+crearEscrotorio(): IEscritorio</text></g></g><g transform="translate(-30,-22) scale(1,1)"><g><path fill="none" stroke="none"/><text fill="#000000" stroke="none" font-family="Arial" font-size="13px" font-style="normal" font-weight="normal" text-decoration="none" x="389" y="603.5">+crearPortatil(): IPortatil</text></g></g><g transform="translate(-30,-22) scale(1,1)"><path fill="none" stroke="#0000ff" d="M 272 535 L 346 465" stroke-miterlimit="10"/></g><g transform="translate(-30,-22) scale(1,1)"><path fill="#FFFFFF" stroke="none" d="M 337.0198353419585 485.0837407550103 L 346 465 L 325.44871539466664 472.8514139535875"/></g><g transform="translate(-30,-22) scale(1,1)"><path fill="none" stroke="#0000ff" d="M 337.0198353419585 485.0837407550103 L 346 465 L 325.44871539466664 472.8514139535875 L 337.0198353419585 485.0837407550103" stroke-miterlimit="10"/></g><g transform="translate(-30,-22) scale(1,1)"><path fill="none" stroke="#0000ff" d="M 472 535 L 432 465" stroke-miterlimit="10"/></g><g transform="translate(-30,-22) scale(1,1)"><path fill="#FFFFFF" stroke="none" d="M 449.39396727607874 478.47033416061765 L 432 465 L 434.77442758283064 486.8243568424737"/></g><g transform="translate(-30,-22) scale(1,1)"><path fill="none" stroke="#0000ff" d="M 449.39396727607874 478.47033416061765 L 432 465 L 434.77442758283064 486.8243568424737 L 449.39396727607874 478.47033416061765" stroke-miterlimit="10"/></g><g transform="translate(-30,-22) scale(1,1)"><rect fill="#C0C0C0" stroke="none" x="839" y="551" width="136" height="96" opacity="0.2"/></g><g transform="translate(-30,-22) scale(1,1)"><rect fill="#ffffff" stroke="none" x="832" y="544" width="136" height="96"/></g><g transform="translate(-30,-22) scale(1,1)"><path fill="none" stroke="#000000" d="M 832 544 L 968 544 L 968 640 L 832 640 L 832 544 Z Z" stroke-miterlimit="10"/></g><g transform="translate(-30,-22) scale(1,1)"><path fill="none" stroke="#000000" d="M 832 569 L 968 569" stroke-miterlimit="10"/></g><g transform="translate(-30,-22) scale(1,1)"><path fill="none" stroke="#000000" d="M 832 622 L 968 622" stroke-miterlimit="10"/></g><g transform="translate(-30,-22) scale(1,1)"><g><path fill="none" stroke="none"/><text fill="#000000" stroke="none" font-family="Arial" font-size="13px" font-style="normal" font-weight="bold" text-decoration="none" x="863.8818359375" y="563.5">EscritorioHP</text></g></g><g transform="translate(-30,-22) scale(1,1)"><g><path fill="none" stroke="none"/><text fill="#000000" stroke="none" font-family="Arial" font-size="13px" font-style="normal" font-weight="normal" text-decoration="none" x="837" y="586.5">+procesardor: String</text></g></g><g transform="translate(-30,-22) scale(1,1)"><g><path fill="none" stroke="none"/><text fill="#000000" stroke="none" font-family="Arial" font-size="13px" font-style="normal" font-weight="normal" text-decoration="none" x="837" y="601.5">+ram: int</text></g></g><g transform="translate(-30,-22) scale(1,1)"><g><path fill="none" stroke="none"/><text fill="#000000" stroke="none" font-family="Arial" font-size="13px" font-style="normal" font-weight="normal" text-decoration="none" x="837" y="616.5">+discoDuro: int</text></g></g><g transform="translate(-30,-22) scale(1,1)"><rect fill="#C0C0C0" stroke="none" x="1007" y="551" width="136" height="95" opacity="0.2"/></g><g transform="translate(-30,-22) scale(1,1)"><rect fill="#ffffff" stroke="none" x="1000" y="544" width="136" height="95"/></g><g transform="translate(-30,-22) scale(1,1)"><path fill="none" stroke="#000000" d="M 1000 544 L 1136 544 L 1136 639 L 1000 639 L 1000 544 Z Z" stroke-miterlimit="10"/></g><g transform="translate(-30,-22) scale(1,1)"><path fill="none" stroke="#000000" d="M 1000 569 L 1136 569" stroke-miterlimit="10"/></g><g transform="translate(-30,-22) scale(1,1)"><path fill="none" stroke="#000000" d="M 1000 622 L 1136 622" stroke-miterlimit="10"/></g><g transform="translate(-30,-22) scale(1,1)"><g><path fill="none" stroke="none"/><text fill="#000000" stroke="none" font-family="Arial" font-size="13px" font-style="normal" font-weight="bold" text-decoration="none" x="1038.740478515625" y="563.5">PortatilHP</text></g></g><g transform="translate(-30,-22) scale(1,1)"><g><path fill="none" stroke="none"/><text fill="#000000" stroke="none" font-family="Arial" font-size="13px" font-style="normal" font-weight="normal" text-decoration="none" x="1005" y="586.5">+procesardor: String</text></g></g><g transform="translate(-30,-22) scale(1,1)"><g><path fill="none" stroke="none"/><text fill="#000000" stroke="none" font-family="Arial" font-size="13px" font-style="normal" font-weight="normal" text-decoration="none" x="1005" y="601.5">+ram: int</text></g></g><g transform="translate(-30,-22) scale(1,1)"><g><path fill="none" stroke="none"/><text fill="#000000" stroke="none" font-family="Arial" font-size="13px" font-style="normal" font-weight="normal" text-decoration="none" x="1005" y="616.5">+discoDuro: int</text></g></g><g transform="translate(-30,-22) scale(1,1)"><path fill="none" stroke="#0000ff" d="M 871 543 L 829 472" stroke-miterlimit="10"/></g><g transform="translate(-30,-22) scale(1,1)"><path fill="#FFFFFF" stroke="none" d="M 846.5945394846179 485.2072775515706 L 829 472 L 832.1022626636993 493.78017369915625"/></g><g transform="translate(-30,-22) scale(1,1)"><path fill="none" stroke="#0000ff" d="M 846.5945394846179 485.2072775515706 L 829 472 L 832.1022626636993 493.78017369915625 L 846.5945394846179 485.2072775515706" stroke-miterlimit="10"/></g><g transform="translate(-30,-22) scale(1,1)"><rect fill="#C0C0C0" stroke="none" x="231" y="39" width="288.9697265625" height="112" opacity="0.2"/></g><g transform="translate(-30,-22) scale(1,1)"><rect fill="#ffffff" stroke="none" x="224" y="32" width="288.9697265625" height="112"/></g><g transform="translate(-30,-22) scale(1,1)"><path fill="none" stroke="#000000" d="M 224 32 L 512.9697265625 32 L 512.9697265625 144 L 224 144 L 224 32 Z Z" stroke-miterlimit="10"/></g><g transform="translate(-30,-22) scale(1,1)"><path fill="none" stroke="#000000" d="M 224 70 L 512.9697265625 70" stroke-miterlimit="10"/></g><g transform="translate(-30,-22) scale(1,1)"><path fill="none" stroke="#000000" d="M 224 80 L 512.9697265625 80" stroke-miterlimit="10"/></g><g transform="translate(-30,-22) scale(1,1)"><g><path fill="none" stroke="none"/><text fill="#000000" stroke="none" font-family="Arial" font-size="13px" font-style="normal" font-weight="normal" text-decoration="none" x="336.324462890625" y="49.5">«interface»</text></g></g><g transform="translate(-30,-22) scale(1,1)"><g><path fill="none" stroke="none"/><text fill="#000000" stroke="none" font-family="Arial" font-size="13px" font-style="normal" font-weight="bold" text-decoration="none" x="327.6630859375" y="64.5">IBrandFactory</text></g></g><g transform="translate(-30,-22) scale(1,1)"><g><path fill="none" stroke="none"/><text fill="#000000" stroke="none" font-family="Arial" font-size="13px" font-style="normal" font-weight="normal" text-decoration="none" x="229" y="97.5">+crearFabricaComputador(): computadorFactory</text></g></g><g transform="translate(-30,-22) scale(1,1)"><rect fill="#C0C0C0" stroke="none" x="47" y="215" width="288.9697265625" height="80" opacity="0.2"/></g><g transform="translate(-30,-22) scale(1,1)"><rect fill="#ffffff" stroke="none" x="40" y="208" width="288.9697265625" height="80"/></g><g transform="translate(-30,-22) scale(1,1)"><path fill="none" stroke="#000000" d="M 40 208 L 328.9697265625 208 L 328.9697265625 288 L 40 288 L 40 208 Z Z" stroke-miterlimit="10"/></g><g transform="translate(-30,-22) scale(1,1)"><path fill="none" stroke="#000000" d="M 40 233 L 328.9697265625 233" stroke-miterlimit="10"/></g><g transform="translate(-30,-22) scale(1,1)"><path fill="none" stroke="#000000" d="M 40 243 L 328.9697265625 243" stroke-miterlimit="10"/></g><g transform="translate(-30,-22) scale(1,1)"><g><path fill="none" stroke="none"/><text fill="#000000" stroke="none" font-family="Arial" font-size="13px" font-style="normal" font-weight="bold" text-decoration="none" x="129.20947265625" y="227.5">DELLBrandFactory</text></g></g><g transform="translate(-30,-22) scale(1,1)"><g><path fill="none" stroke="none"/><text fill="#000000" stroke="none" font-family="Arial" font-size="13px" font-style="normal" font-weight="normal" text-decoration="none" x="45" y="260.5">+crearFabricaComputador(): computadorFactory</text></g></g><g transform="translate(-30,-22) scale(1,1)"><rect fill="#C0C0C0" stroke="none" x="423" y="215" width="288.9697265625" height="88" opacity="0.2"/></g><g transform="translate(-30,-22) scale(1,1)"><rect fill="#ffffff" stroke="none" x="416" y="208" width="288.9697265625" height="88"/></g><g transform="translate(-30,-22) scale(1,1)"><path fill="none" stroke="#000000" d="M 416 208 L 704.9697265625 208 L 704.9697265625 296 L 416 296 L 416 208 Z Z" stroke-miterlimit="10"/></g><g transform="translate(-30,-22) scale(1,1)"><path fill="none" stroke="#000000" d="M 416 233 L 704.9697265625 233" stroke-miterlimit="10"/></g><g transform="translate(-30,-22) scale(1,1)"><path fill="none" stroke="#000000" d="M 416 243 L 704.9697265625 243" stroke-miterlimit="10"/></g><g transform="translate(-30,-22) scale(1,1)"><g><path fill="none" stroke="none"/><text fill="#000000" stroke="none" font-family="Arial" font-size="13px" font-style="normal" font-weight="bold" text-decoration="none" x="512.439453125" y="227.5">HPBrandFactory</text></g></g><g transform="translate(-30,-22) scale(1,1)"><g><path fill="none" stroke="none"/><text fill="#000000" stroke="none" font-family="Arial" font-size="13px" font-style="normal" font-weight="normal" text-decoration="none" x="421" y="260.5">+crearFabricaComputador(): computadorFactory</text></g></g><g transform="translate(-30,-22) scale(1,1)"><path fill="none" stroke="#ff0000" d="M 231 207 L 302 145" stroke-miterlimit="10"/></g><g transform="translate(-30,-22) scale(1,1)"><path fill="#FFFFFF" stroke="none" d="M 292.22791309310196 164.71056360137965 L 302 145 L 281.1526178982439 152.02756426533244"/></g><g transform="translate(-30,-22) scale(1,1)"><path fill="none" stroke="#ff0000" d="M 292.22791309310196 164.71056360137965 L 302 145 L 281.1526178982439 152.02756426533244 L 292.22791309310196 164.71056360137965" stroke-miterlimit="10"/></g><g transform="translate(-30,-22) scale(1,1)"><path fill="none" stroke="#ff0000" d="M 507 207 L 435 145" stroke-miterlimit="10"/></g><g transform="translate(-30,-22) scale(1,1)"><path fill="#FFFFFF" stroke="none" d="M 455.89553136015513 151.88307846655655 L 435 145 L 444.90830046212056 164.64244338040308"/></g><g transform="translate(-30,-22) scale(1,1)"><path fill="none" stroke="#ff0000" d="M 455.89553136015513 151.88307846655655 L 435 145 L 444.90830046212056 164.64244338040308 L 455.89553136015513 151.88307846655655" stroke-miterlimit="10"/></g><g transform="translate(-30,-22) scale(1,1)"><path fill="none" stroke="#ff2b2b" d="M 239 289 L 332 359" stroke-miterlimit="10"/></g><g transform="translate(-30,-22) scale(1,1)"><path fill="none" stroke="#ff2b2b" d="M 516 297 L 454 359" stroke-miterlimit="10"/></g><g transform="translate(-30,-22) scale(1,1)"><rect fill="#C0C0C0" stroke="none" x="807" y="807" width="228.298828125" height="190" opacity="0.2"/></g><g transform="translate(-30,-22) scale(1,1)"><rect fill="#ffffff" stroke="none" x="800" y="800" width="228.298828125" height="190"/></g><g transform="translate(-30,-22) scale(1,1)"><path fill="none" stroke="#000000" d="M 800 800 L 1028.298828125 800 L 1028.298828125 990 L 800 990 L 800 800 Z Z" stroke-miterlimit="10"/></g><g transform="translate(-30,-22) scale(1,1)"><path fill="none" stroke="#000000" d="M 800 825 L 1028.298828125 825" stroke-miterlimit="10"/></g><g transform="translate(-30,-22) scale(1,1)"><path fill="none" stroke="#000000" d="M 800 878 L 1028.298828125 878" stroke-miterlimit="10"/></g><g transform="translate(-30,-22) scale(1,1)"><g><path fill="none" stroke="none"/><text fill="#000000" stroke="none" font-family="Arial" font-size="13px" font-style="normal" font-weight="bold" text-decoration="none" x="858.147216796875" y="819.5">ComputadorBuilder</text></g></g><g transform="translate(-30,-22) scale(1,1)"><g><path fill="none" stroke="none"/><text fill="#000000" stroke="none" font-family="Arial" font-size="13px" font-style="normal" font-weight="normal" text-decoration="none" x="805" y="842.5">+procesardor: String</text></g></g><g transform="translate(-30,-22) scale(1,1)"><g><path fill="none" stroke="none"/><text fill="#000000" stroke="none" font-family="Arial" font-size="13px" font-style="normal" font-weight="normal" text-decoration="none" x="805" y="857.5">+ram: int</text></g></g><g transform="translate(-30,-22) scale(1,1)"><g><path fill="none" stroke="none"/><text fill="#000000" stroke="none" font-family="Arial" font-size="13px" font-style="normal" font-weight="normal" text-decoration="none" x="805" y="872.5">+discoDuro: int</text></g></g><g transform="translate(-30,-22) scale(1,1)"><g><path fill="none" stroke="none"/><text fill="#000000" stroke="none" font-family="Arial" font-size="13px" font-style="normal" font-weight="normal" text-decoration="none" x="805" y="895.5">+setProcesador(): ComputadorBuilder</text></g></g><g transform="translate(-30,-22) scale(1,1)"><g><path fill="none" stroke="none"/><text fill="#000000" stroke="none" font-family="Arial" font-size="13px" font-style="normal" font-weight="normal" text-decoration="none" x="805" y="910.5">+setRam(): ComputadorBuilder</text></g></g><g transform="translate(-30,-22) scale(1,1)"><g><path fill="none" stroke="none"/><text fill="#000000" stroke="none" font-family="Arial" font-size="13px" font-style="normal" font-weight="normal" text-decoration="none" x="805" y="925.5">+setDiscoDuro(): ComputadorBuilder</text></g></g><g transform="translate(-30,-22) scale(1,1)"><g><path fill="none" stroke="none"/><text fill="#000000" stroke="none" font-family="Arial" font-size="13px" font-style="normal" font-weight="normal" text-decoration="none" x="805" y="940.5">+BuildDellEscritorio(): computador</text></g></g><g transform="translate(-30,-22) scale(1,1)"><g><path fill="none" stroke="none"/><text fill="#000000" stroke="none" font-family="Arial" font-size="13px" font-style="normal" font-weight="normal" text-decoration="none" x="805" y="955.5">+BuildHPEscritorio(): computador</text></g></g><g transform="translate(-30,-22) scale(1,1)"><g><path fill="none" stroke="none"/><text fill="#000000" stroke="none" font-family="Arial" font-size="13px" font-style="normal" font-weight="normal" text-decoration="none" x="805" y="970.5">+BuildDellPortatil(): computador</text></g></g><g transform="translate(-30,-22) scale(1,1)"><g><path fill="none" stroke="none"/><text fill="#000000" stroke="none" font-family="Arial" font-size="13px" font-style="normal" font-weight="normal" text-decoration="none" x="805" y="985.5">+BuildHPPortatil(): computador</text></g></g><g transform="translate(-30,-22) scale(1,1)"><rect fill="#C0C0C0" stroke="none" x="1063" y="367" width="159" height="119" opacity="0.2"/></g><g transform="translate(-30,-22) scale(1,1)"><rect fill="#ffffff" stroke="none" x="1056" y="360" width="159" height="119"/></g><g transform="translate(-30,-22) scale(1,1)"><path fill="none" stroke="#000000" d="M 1056 360 L 1215 360 L 1215 479 L 1056 479 L 1056 360 Z Z" stroke-miterlimit="10"/></g><g transform="translate(-30,-22) scale(1,1)"><path fill="none" stroke="#000000" d="M 1056 398 L 1215 398" stroke-miterlimit="10"/></g><g transform="translate(-30,-22) scale(1,1)"><path fill="none" stroke="#000000" d="M 1056 408 L 1215 408" stroke-miterlimit="10"/></g><g transform="translate(-30,-22) scale(1,1)"><g><path fill="none" stroke="none"/><text fill="#000000" stroke="none" font-family="Arial" font-size="13px" font-style="normal" font-weight="normal" text-decoration="none" x="1103.339599609375" y="377.5">«interface»</text></g></g><g transform="translate(-30,-22) scale(1,1)"><g><path fill="none" stroke="none"/><text fill="#000000" stroke="none" font-family="Arial" font-size="13px" font-style="normal" font-weight="bold" text-decoration="none" x="1113.464111328125" y="392.5">IPortatil</text></g></g><g transform="translate(-30,-22) scale(1,1)"><path fill="none" stroke="#0000ff" d="M 1087 543 L 1111 480" stroke-miterlimit="10"/></g><g transform="translate(-30,-22) scale(1,1)"><path fill="#FFFFFF" stroke="none" d="M 1111.6317558956237 501.9909273221559 L 1111 480 L 1095.8967850437732 495.99665271192714"/></g><g transform="translate(-30,-22) scale(1,1)"><path fill="none" stroke="#0000ff" d="M 1111.6317558956237 501.9909273221559 L 1111 480 L 1095.8967850437732 495.99665271192714 L 1111.6317558956237 501.9909273221559" stroke-miterlimit="10"/></g><g transform="translate(-30,-22) scale(1,1)"><path fill="none" stroke="#0000ff" d="M 1199 543 L 1166 480" stroke-miterlimit="10"/></g><g transform="translate(-30,-22) scale(1,1)"><path fill="#FFFFFF" stroke="none" d="M 1182.888951590202 494.0983443774018 L 1166 480 L 1167.973257283799 501.91132710932715"/></g><g transform="translate(-30,-22) scale(1,1)"><path fill="none" stroke="#0000ff" d="M 1182.888951590202 494.0983443774018 L 1166 480 L 1167.973257283799 501.91132710932715 L 1182.888951590202 494.0983443774018" stroke-miterlimit="10"/></g><g transform="translate(-30,-22) scale(1,1)"><path fill="none" stroke="#ff2b2b" d="M 519 413 L 719 414" stroke-miterlimit="10"/></g><g transform="translate(-30,-22) scale(1,1)"><path fill="none" stroke="#ff2b2b" d="M 519 378 L 633 344 L 953 344 L 1055 386" stroke-miterlimit="10"/></g><g transform="translate(-30,-22) scale(1,1)"><path fill="none" stroke="#0000ff" d="M 247 623 L 247 728 L 725 728 L 725 640" stroke-miterlimit="10"/></g><g transform="translate(-30,-22) scale(1,1)"><path fill="none" stroke="#0000ff" d="M 237 623 L 237 752 L 1214 752 L 1214 640" stroke-miterlimit="10"/></g><g transform="translate(-30,-22) scale(1,1)"><path fill="none" stroke="#0000ff" d="M 521 624 L 521 672 L 898 672 L 898 640" stroke-miterlimit="10"/></g><g transform="translate(-30,-22) scale(1,1)"><path fill="none" stroke="#0000ff" d="M 500 624 L 500 696 L 1064 696 L 1064 639" stroke-miterlimit="10"/></g><g transform="translate(-30,-22) scale(1,1)"><path fill="none" stroke="#ff2b2b" d="M 858 799 L 765 641" stroke-miterlimit="10"/></g><g transform="translate(-30,-22) scale(1,1)"><path fill="none" stroke="#ff2b2b" d="M 910 799 L 902 641" stroke-miterlimit="10"/></g><g transform="translate(-30,-22) scale(1,1)"><path fill="none" stroke="#ff2b2b" d="M 963 799 L 1043 640" stroke-miterlimit="10"/></g><g transform="translate(-30,-22) scale(1,1)"><path fill="none" stroke="#ff2b2b" d="M 1012 799 L 1174 641" stroke-miterlimit="10"/></g><g transform="translate(-30,-22) scale(1,1)"><path fill="none" stroke="#ff0000" d="M 387 144 L 387 360" stroke-miterlimit="10"/></g><g transform="translate(-30,-22) scale(1,1)"><path fill="none" stroke="#0000ff" d="M 96 288 L 96 579 L 112 579" stroke-miterlimit="10"/></g><g transform="translate(-30,-22) scale(1,1)"><path fill="none" stroke="#0000ff" d="M 656 296 L 656 536 L 614 536" stroke-miterlimit="10"/></g><g transform="translate(-30,-22) scale(1,1)"><rect fill="#C0C0C0" stroke="none" x="1111" y="799" width="215.96533203125" height="183" opacity="0.2"/></g><g transform="translate(-30,-22) scale(1,1)"><rect fill="#ffffff" stroke="none" x="1104" y="792" width="215.96533203125" height="183"/></g><g transform="translate(-30,-22) scale(1,1)"><path fill="none" stroke="#000000" d="M 1104 792 L 1319.96533203125 792 L 1319.96533203125 975 L 1104 975 L 1104 792 Z Z" stroke-miterlimit="10"/></g><g transform="translate(-30,-22) scale(1,1)"><path fill="none" stroke="#000000" d="M 1104 817 L 1319.96533203125 817" stroke-miterlimit="10"/></g><g transform="translate(-30,-22) scale(1,1)"><path fill="none" stroke="#000000" d="M 1104 827 L 1319.96533203125 827" stroke-miterlimit="10"/></g><g transform="translate(-30,-22) scale(1,1)"><g><path fill="none" stroke="none"/><text fill="#000000" stroke="none" font-family="Arial" font-size="13px" font-style="normal" font-weight="bold" text-decoration="none" x="1144.783203125" y="811.5">DellComputadorBuilder</text></g></g><g transform="translate(-30,-22) scale(1,1)"><g><path fill="none" stroke="none"/><text fill="#000000" stroke="none" font-family="Arial" font-size="13px" font-style="normal" font-weight="normal" text-decoration="none" x="1109" y="844.5">+BuildDEllEscritorio(): DellEscritorio</text></g></g><g transform="translate(-30,-22) scale(1,1)"><g><path fill="none" stroke="none"/><text fill="#000000" stroke="none" font-family="Arial" font-size="13px" font-style="normal" font-weight="normal" text-decoration="none" x="1109" y="859.5">+BuildPortatil(): DellPortatil</text></g></g><g transform="translate(-30,-22) scale(1,1)"><rect fill="#C0C0C0" stroke="none" x="479" y="815" width="215" height="151" opacity="0.2"/></g><g transform="translate(-30,-22) scale(1,1)"><rect fill="#ffffff" stroke="none" x="472" y="808" width="215" height="151"/></g><g transform="translate(-30,-22) scale(1,1)"><path fill="none" stroke="#000000" d="M 472 808 L 687 808 L 687 959 L 472 959 L 472 808 Z Z" stroke-miterlimit="10"/></g><g transform="translate(-30,-22) scale(1,1)"><path fill="none" stroke="#000000" d="M 472 833 L 687 833" stroke-miterlimit="10"/></g><g transform="translate(-30,-22) scale(1,1)"><path fill="none" stroke="#000000" d="M 472 843 L 687 843" stroke-miterlimit="10"/></g><g transform="translate(-30,-22) scale(1,1)"><g><path fill="none" stroke="none"/><text fill="#000000" stroke="none" font-family="Arial" font-size="13px" font-style="normal" font-weight="bold" text-decoration="none" x="514.46826171875" y="827.5">HPComputadorBuilder</text></g></g><g transform="translate(-30,-22) scale(1,1)"><g><path fill="none" stroke="none"/><text fill="#000000" stroke="none" font-family="Arial" font-size="13px" font-style="normal" font-weight="normal" text-decoration="none" x="477" y="860.5">+BuldHPEscritorio(): HPEscritorio</text></g></g><g transform="translate(-30,-22) scale(1,1)"><g><path fill="none" stroke="none"/><text fill="#000000" stroke="none" font-family="Arial" font-size="13px" font-style="normal" font-weight="normal" text-decoration="none" x="477" y="875.5">+BuildHPPortatil(): HPPortatil</text></g></g><g transform="translate(-30,-22) scale(1,1)"><path fill="none" stroke="#ff2b2b" d="M 1103 887 L 1029 890" stroke-miterlimit="10"/></g><g transform="translate(-30,-22) scale(1,1)"><path fill="#FFFFFF" stroke="none" d="M 1048.9676354431942 880.7645501025834 L 1029 890 L 1049.6496996759154 897.5888011763716"/></g><g transform="translate(-30,-22) scale(1,1)"><path fill="none" stroke="#ff2b2b" d="M 1048.9676354431942 880.7645501025834 L 1029 890 L 1049.6496996759154 897.5888011763716 L 1048.9676354431942 880.7645501025834" stroke-miterlimit="10"/></g><g transform="translate(-30,-22) scale(1,1)"><path fill="none" stroke="#ff2b2b" d="M 688 887 L 799 891" stroke-miterlimit="10"/></g><g transform="translate(-30,-22) scale(1,1)"><path fill="#FFFFFF" stroke="none" d="M 778.3846427839876 898.6816044454403 L 799 891 L 778.9910265222111 881.8544557097381"/></g><g transform="translate(-30,-22) scale(1,1)"><path fill="none" stroke="#ff2b2b" d="M 778.3846427839876 898.6816044454403 L 799 891 L 778.9910265222111 881.8544557097381 L 778.3846427839876 898.6816044454403" stroke-miterlimit="10"/></g></g></svg>